<svg height="512pt" viewBox="0 0 512 512" width="512pt" xmlns="http://www.w3.org/2000/svg"><path d="m212.117188 248.320312c5.242187-2.460937 8.347656-9.308593 8.347656-17.765624 0-14.234376-9.632813-19.15625-22.582032-19.15625-18.085937 0-23.4375 11.023437-23.4375 18.621093 0 4.496094.960938 5.996094 7.167969 5.996094 5.140625 0 6.636719-2.144531 6.636719-5.351563 0-4.28125 2.570312-7.171874 9.527344-7.171874 5.777344 0 9.417968 2.355468 9.417968 9.417968 0 9.203125-4.496093 10.488282-9.847656 10.488282-3.105468 0-4.175781 2.78125-4.175781 5.457031 0 2.78125 1.070313 5.457031 4.175781 5.457031 6.847656 0 11.773438 2.25 11.773438 10.167969v2.035156c0 8.132813-3.425782 11.558594-11.453125 11.558594-6.851563 0-11.132813-3-11.132813-7.8125 0-3.425781-1.496094-4.925781-7.167968-4.925781-4.816407 0-6.636719 1.179687-6.636719 5.460937 0 8.667969 7.0625 19.476563 24.617187 19.476563 14.125 0 25.683594-6.527344 25.683594-23.757813v-2.035156c0-8.882813-4.601562-13.699219-10.914062-16.160157zm0 0"/><path d="m256.746094 223.597656c5.886718 0 10.917968 2.890625 10.917968 7.921875 0 4.171875 3.425782 5.242188 7.277344 5.242188 4.386719 0 6.527344-1.390625 6.527344-5.777344 0-8.992187-7.277344-19.585937-24.402344-19.585937-14.554687 0-25.792968 6.636718-25.792968 24.507812v29.863281c0 17.871094 11.023437 24.507813 25.152343 24.507813 14.128907 0 25.042969-6.636719 25.042969-24.507813v-1.5c0-16.910156-10.058594-22.152343-22.152344-22.152343-5.566406 0-10.703125 1.28125-14.234375 5.457031v-11.667969c0-8.453125 4.386719-12.308594 11.664063-12.308594zm-.425782 29.433594c7.0625 0 11.238282 3.316406 11.238282 12.199219v1.394531c0 8.453125-4.175782 12.308594-11.132813 12.308594-7.0625 0-11.34375-3.855469-11.34375-12.308594v-2.355469c0-8.136719 4.496094-11.238281 11.238281-11.238281zm0 0"/><path d="m340.230469 235.90625c0-17.871094-11.023438-24.507812-25.152344-24.507812s-25.042969 6.636718-25.042969 24.507812v29.859375c0 17.875 10.914063 24.511719 25.042969 24.511719s25.152344-6.636719 25.152344-24.511719zm-13.914063 29.859375c0 8.457031-4.28125 12.308594-11.238281 12.308594-7.0625 0-11.132813-3.851563-11.132813-12.308594v-29.859375c0-8.453125 4.070313-12.308594 11.132813-12.308594 6.957031 0 11.238281 3.855469 11.238281 12.308594zm0 0"/><path d="m512 255.566406c-.105469-61.59375-22.382812-121.058594-62.761719-167.488281-2.71875-3.125-7.457031-3.453125-10.582031-.734375s-3.453125 7.457031-.734375 10.582031c26.050781 29.953125 44.09375 65.671875 52.90625 103.847657-12.988281-15.707032-31.742187-30.042969-55.695313-42.289063-17.960937-9.179687-38.109374-16.820313-59.835937-22.78125-5.960937-21.726563-13.597656-41.875-22.78125-59.835937-12.246094-23.953126-26.578125-42.707032-42.285156-55.691407 38.007812 8.773438 73.585937 26.699219 103.449219 52.558594 3.128906 2.710937 7.867187 2.371094 10.578124-.757813 2.710938-3.132812 2.371094-7.871093-.761718-10.582031-46.46875-40.234375-105.953125-62.394531-167.496094-62.394531-68.378906 0-132.667969 26.628906-181.019531 74.980469-48.351563 48.351562-74.980469 112.640625-74.980469 181.019531v.433594c.105469 61.566406 22.367188 121.015625 62.71875 167.433594 1.480469 1.707031 3.566406 2.578124 5.660156 2.578124 1.746094 0 3.5-.601562 4.917969-1.835937 3.128906-2.71875 3.457031-7.457031.738281-10.582031-26.023437-29.941406-44.054687-65.644532-52.859375-103.800782 12.984375 15.707032 31.738281 30.042969 55.695313 42.289063 17.957031 9.179687 38.105468 16.820313 59.832031 22.78125 5.960937 21.726563 13.601563 41.875 22.78125 59.835937 12.246094 23.953126 26.582031 42.707032 42.289063 55.691407-38.15625-8.804688-73.859376-26.835938-103.800782-52.863281-3.125-2.714844-7.863281-2.386719-10.578125.742187-2.71875 3.125-2.386719 7.863281.738281 10.578125 46.421876 40.351562 105.867188 62.613281 167.433594 62.71875h.433594c68.378906 0 132.667969-26.628906 181.019531-74.980469 48.351563-48.351562 74.980469-112.640625 74.980469-181.019531 0-.144531 0-.289062 0-.433594zm-426.414062-169.980468c32.519531-32.515626 72.691406-54.597657 116.457031-64.558594-16.316407 13.40625-31.128907 32.945312-43.566407 57.828125l-8.296874-24.828125c-1.316407-3.929688-5.5625-6.050782-9.492188-4.738282s-6.046875 5.5625-4.734375 9.492188l14.332031 42.886719c1.050782 3.140625 3.976563 5.125 7.113282 5.125.789062 0 1.589843-.125 2.378906-.386719l42.886718-14.335938c3.929688-1.3125 6.050782-5.5625 4.738282-9.492187-1.3125-3.925781-5.558594-6.046875-9.492188-4.734375l-26.609375 8.894531c22.550781-45.824219 52.890625-71.738281 84.699219-71.738281 30.976562 0 60.511719 24.398438 83.160156 68.699219 7.566406 14.800781 14.039063 31.191406 19.332032 48.796875-31.886719-7.238282-66.636719-11.046875-102.492188-11.046875-67.542969 0-131.15625 13.507812-179.128906 38.035156-24.027344 12.285156-42.824219 26.667969-55.8125 42.429687 9.972656-43.714843 32.042968-83.839843 64.527344-116.328124zm46.910156 272.90625c-17.601563-5.292969-33.996094-11.765626-48.796875-19.332032-44.300781-22.648437-68.699219-52.183594-68.699219-83.160156s24.398438-60.511719 68.699219-83.160156c14.808593-7.570313 31.210937-14.046875 48.828125-19.34375-7.351563 32.273437-11.078125 66.6875-11.078125 102.503906 0 35.855469 3.808593 70.605469 11.046875 102.492188zm123.503906 138.507812c-30.976562 0-60.511719-24.398438-83.160156-68.699219-7.566406-14.800781-14.039063-31.191406-19.332032-48.796875 31.886719 7.238282 66.636719 11.046875 102.492188 11.046875 17.714844 0 35.300781-.9375 52.484375-2.796875l-16.386719 22.917969c-2.410156 3.367187-1.632812 8.054687 1.738282 10.464844 1.320312.941406 2.84375 1.398437 4.355468 1.398437 2.335938 0 4.640625-1.089844 6.105469-3.136718l26.300781-36.785157c.875-1.222656 1.355469-2.667969 1.398438-4.148437.015625-.457032-.007813-.917969-.074219-1.386719-.363281-2.484375-1.902344-4.503906-3.972656-5.578125l-35.875-25.652344c-3.367188-2.40625-8.050781-1.632812-10.460938 1.738282-2.410156 3.367187-1.632812 8.054687 1.738281 10.464843l21.050782 15.050781c-15.863282 1.628907-32.074219 2.449219-48.40625 2.449219-37.75 0-74.148438-4.332031-107.019532-12.53125-8.199218-32.867187-12.53125-69.269531-12.53125-107.019531 0-37.628906 4.234376-73.613281 12.582032-107.03125 32.859375-8.191406 69.242187-12.519531 106.972656-12.519531 37.75 0 74.152344 4.332031 107.019531 12.53125 8.199219 32.867187 12.53125 69.269531 12.53125 107.019531 0 39.074219-4.640625 76.703125-13.40625 110.464844-.199219.511718-.339843 1.050781-.421875 1.601562-5.8125 21.96875-13.378906 42.273438-22.5625 60.234375-22.648437 44.300781-52.183594 68.699219-83.160156 68.699219zm170.414062-70.585938c-32.488281 32.484376-72.613281 54.554688-116.328124 64.53125 15.761718-12.992187 30.144531-31.785156 42.429687-55.8125 9.1875-17.96875 16.828125-38.128906 22.789063-59.871093 52.75-14.460938 92.9375-37.628907 115.671874-65.328125-9.957031 43.773437-32.039062 83.957031-64.5625 116.480468zm35.789063-109.035156c-20.605469 16.878906-49.011719 30.960938-82.691406 41.066406 7.234375-31.875 11.039062-66.609374 11.039062-102.445312 0-35.855469-3.808593-70.605469-11.046875-102.496094 17.601563 5.296875 33.996094 11.765625 48.796875 19.335938 44.300781 22.648437 68.699219 52.183594 68.699219 83.160156 0 21.507812-12.03125 42.734375-34.796875 61.378906zm0 0"/></svg>